<svg width="450" height="512" viewBox="0 0 450 512" fill="none" xmlns="http://www.w3.org/2000/svg">
<g clip-path="url(#clip0)">
<path d="M232.562 142.533L194.359 127.533V187.533L232.562 172.533C240.474 172.533 246.889 165.817 246.889 157.533C246.889 149.249 240.474 142.533 232.562 142.533V142.533Z" fill="#FFE390"/>
<path d="M218.236 157.533C218.236 149.249 211.822 142.533 203.91 142.533L194.359 127.533L184.809 142.533C176.897 142.533 170.482 149.249 170.482 157.533C170.482 165.817 176.897 172.533 184.809 172.533L194.359 187.533L203.91 172.533C211.822 172.533 218.236 165.817 218.236 157.533Z" fill="#FFF9BF"/>
<path d="M180.033 439.498V489.498L151.38 499.498V439.498H180.033Z" fill="#85453D"/>
<path d="M265.989 439.498V499.498L237.337 489.498V439.498H265.989Z" fill="#60312C"/>
<path d="M251.663 277.499H180.032L223.011 334.928V384.499C223.011 392.783 229.425 399.499 237.337 399.499C245.249 399.499 251.663 392.783 251.663 384.499V277.499Z" fill="#FF8043"/>
<path d="M165.706 277.499V384.499C165.706 392.783 172.121 399.499 180.033 399.499C187.944 399.499 194.359 392.783 194.359 384.499V334.928C198.841 336.587 203.66 337.499 208.685 337.499C213.71 337.499 218.529 336.587 223.011 334.928V277.499H165.706Z" fill="#FFA753"/>
<path d="M232.564 172.533H203.912V277.533H251.666V192.533C251.666 181.487 243.114 172.533 232.564 172.533V172.533Z" fill="#4F4F4F"/>
<path d="M203.912 172.533H184.811C174.261 172.533 165.709 181.487 165.709 192.533V277.533H223.014V192.533C223.014 181.487 214.462 172.533 203.912 172.533V172.533Z" fill="#696969"/>
<path d="M251.663 262.532H223.011L237.337 302.197H265.989C265.989 286.986 260.573 273.107 251.663 262.532Z" fill="#353535"/>
<path d="M223.011 262.532H165.706C156.796 273.107 151.38 286.986 151.38 302.197H237.337C237.337 286.986 231.921 273.107 223.011 262.532Z" fill="#4F4F4F"/>
<path d="M194.359 240.033C198.315 240.033 201.522 236.675 201.522 232.533C201.522 228.391 198.315 225.033 194.359 225.033C190.403 225.033 187.196 228.391 187.196 232.533C187.196 236.675 190.403 240.033 194.359 240.033Z" fill="black"/>
<path d="M223.012 240.033C226.968 240.033 230.175 236.675 230.175 232.533C230.175 228.391 226.968 225.033 223.012 225.033C219.056 225.033 215.849 228.391 215.849 232.533C215.849 236.675 219.056 240.033 223.012 240.033Z" fill="black"/>
<path d="M194.359 210.033C198.315 210.033 201.522 206.675 201.522 202.533C201.522 198.391 198.315 195.033 194.359 195.033C190.403 195.033 187.196 198.391 187.196 202.533C187.196 206.675 190.403 210.033 194.359 210.033Z" fill="black"/>
<path d="M223.012 210.033C226.968 210.033 230.175 206.675 230.175 202.533C230.175 198.391 226.968 195.033 223.012 195.033C219.056 195.033 215.849 198.391 215.849 202.533C215.849 206.675 219.056 210.033 223.012 210.033Z" fill="black"/>
<path d="M272.405 114.59C272.402 111.09 271.245 107.879 269.323 105.329L242.442 69.644L208.685 142.499H265.989C273.901 142.499 280.315 136.272 280.315 127.988C280.316 122.122 277.092 117.055 272.405 114.59V114.59Z" fill="#60312C"/>
<path d="M144.965 114.59C144.968 111.09 146.125 107.879 148.047 105.329L174.928 69.644L208.686 142.499C208.686 142.499 159.288 142.499 151.381 142.499C143.469 142.499 137.055 136.272 137.055 127.988C137.055 122.122 140.278 117.055 144.965 114.59V114.59Z" fill="#85453D"/>
<path d="M208.686 52.499V142.499C232.422 142.499 251.664 122.352 251.664 97.499C251.664 72.646 232.422 52.499 208.686 52.499V52.499Z" fill="#FFC1BA"/>
<path d="M223.012 97.499C223.012 72.646 216.597 52.499 208.686 52.499C184.949 52.499 165.707 72.646 165.707 97.499C165.707 122.352 184.949 142.499 208.686 142.499C216.597 142.499 223.012 122.352 223.012 97.499Z" fill="#FFDDD9"/>
<path d="M323.294 155.033H312.788C308.831 155.033 305.625 158.391 305.625 162.533C305.625 166.675 308.831 170.033 312.788 170.033H323.294C327.244 170.033 330.457 173.396 330.457 177.532C330.457 181.668 327.244 185.032 323.294 185.032H257.826C256.369 179.664 253.396 174.959 249.418 171.464C252.316 167.63 254.051 162.791 254.051 157.533C254.051 154.891 253.611 152.356 252.809 150H265.989C278.04 150 287.479 140.331 287.479 127.988C287.479 120.919 284.373 114.429 279.162 110.219C278.511 106.761 277.086 103.521 274.947 100.685L248.066 64.9999C238.847 52.841 224.628 45 208.685 45C192.741 45 178.523 52.842 169.332 65.0239C169.303 65.0009 142.424 100.684 142.424 100.684C140.285 103.521 138.86 106.762 138.208 110.219C132.998 114.429 129.891 120.919 129.891 127.989C129.891 140.332 139.33 150.001 151.381 150.001H164.562C163.759 152.358 163.319 154.893 163.319 157.534C163.319 162.792 165.055 167.631 167.952 171.464C164.04 174.901 161.099 179.506 159.618 184.762C119.008 181.494 86.913 145.877 86.913 102.534C86.913 98.3918 83.7059 95.0338 79.75 95.0338C75.7941 95.0338 72.5869 98.3918 72.5869 102.534C72.5869 153.773 110.531 195.905 158.544 199.747V259.792C149.286 271.781 144.218 286.727 144.218 302.198C144.218 306.34 147.425 309.698 151.381 309.698H158.544V384.499C158.544 394.277 164.533 402.613 172.87 405.709V431.998H151.381C147.425 431.998 144.218 435.356 144.218 439.498V494.092L134.789 497.383C131.036 498.693 129.008 502.94 130.258 506.87C131.259 510.013 134.054 512 137.053 512C137.803 512 138.567 511.875 139.319 511.613L182.297 496.613C185.223 495.592 187.195 492.726 187.195 489.498V405.709C195.532 402.613 201.521 394.277 201.521 384.499V344.463C206.249 345.176 211.119 345.176 215.847 344.463V384.499C215.847 394.277 221.836 402.613 230.173 405.709V489.498C230.173 492.726 232.146 495.592 235.071 496.613L278.049 511.613C278.801 511.875 279.565 512 280.316 512C283.315 512 286.109 510.012 287.11 506.87C288.361 502.94 286.334 498.693 282.58 497.383L273.152 494.092V439.498C273.152 435.356 269.945 431.998 265.989 431.998H244.499V405.709C252.836 402.613 258.825 394.276 258.825 384.499V309.697H265.989C269.945 309.697 273.152 306.339 273.152 302.197C273.152 286.726 268.083 271.78 258.825 259.791V200.032H323.293C335.142 200.032 344.782 189.939 344.782 177.532C344.782 165.126 335.143 155.033 323.294 155.033V155.033ZM159.057 294.697C160.294 285.729 163.739 277.232 169.08 270.032H248.291C253.631 277.232 257.077 285.729 258.313 294.697H159.057ZM172.87 192.532C172.87 185.639 178.225 180.032 184.808 180.032H232.562C239.145 180.032 244.5 185.639 244.5 192.532V255.032H172.87V192.532ZM265.242 114.596C265.244 117.429 266.771 120.019 269.189 121.291C271.634 122.577 273.153 125.143 273.153 127.987C273.153 131.985 270.072 134.999 265.989 134.999H243.729C251.831 126.696 257.266 115.552 258.535 103.119L263.7 109.976C264.403 110.907 265.24 112.465 265.242 114.596V114.596ZM208.685 59.9999C228.434 59.9999 244.5 76.8219 244.5 97.4998C244.5 118.178 228.434 135 208.685 135C188.936 135 172.87 118.178 172.87 97.4998C172.87 76.8219 188.936 59.9999 208.685 59.9999V59.9999ZM144.218 127.988C144.218 125.144 145.736 122.578 148.18 121.292C150.597 120.02 152.125 117.431 152.127 114.599C152.129 112.466 152.967 110.908 153.671 109.974L158.835 103.119C160.104 115.553 165.539 126.697 173.641 135H151.381C147.297 135 144.218 131.985 144.218 127.988V127.988ZM177.645 157.533C177.645 153.397 180.858 150.033 184.808 150.033C185.02 150.033 185.229 150.019 185.437 150H231.933C232.141 150.019 232.35 150.033 232.562 150.033C236.512 150.033 239.725 153.397 239.725 157.533C239.725 161.669 236.512 165.033 232.562 165.033H184.808C180.858 165.033 177.645 161.668 177.645 157.533V157.533ZM158.544 489.092V446.998H172.87V484.092L158.544 489.092ZM258.826 446.998V489.092L244.5 484.092V446.998H258.826ZM244.5 384.499C244.5 388.635 241.287 391.999 237.337 391.999C233.387 391.999 230.174 388.635 230.174 384.499V334.928C230.174 332.493 229.045 330.21 227.147 328.804C225.249 327.398 222.814 327.045 220.623 327.856C212.945 330.699 204.425 330.699 196.747 327.856C194.554 327.044 192.122 327.397 190.223 328.804C188.325 330.21 187.196 332.493 187.196 334.928V384.499C187.196 388.635 183.983 391.999 180.033 391.999C176.083 391.999 172.87 388.635 172.87 384.499V309.697H244.5V384.499Z" fill="black"/>
<path d="M194.359 240.033C198.315 240.033 201.522 236.675 201.522 232.533C201.522 228.391 198.315 225.033 194.359 225.033C190.403 225.033 187.196 228.391 187.196 232.533C187.196 236.675 190.403 240.033 194.359 240.033Z" fill="black"/>
<path d="M223.012 240.033C226.968 240.033 230.175 236.675 230.175 232.533C230.175 228.391 226.968 225.033 223.012 225.033C219.056 225.033 215.849 228.391 215.849 232.533C215.849 236.675 219.056 240.033 223.012 240.033Z" fill="black"/>
<path d="M194.359 210.033C198.315 210.033 201.522 206.675 201.522 202.533C201.522 198.391 198.315 195.033 194.359 195.033C190.403 195.033 187.196 198.391 187.196 202.533C187.196 206.675 190.403 210.033 194.359 210.033Z" fill="black"/>
<path d="M223.012 210.033C226.968 210.033 230.175 206.675 230.175 202.533C230.175 198.391 226.968 195.033 223.012 195.033C219.056 195.033 215.849 198.391 215.849 202.533C215.849 206.675 219.056 210.033 223.012 210.033Z" fill="black"/>
</g>
<g clip-path="url(#clip1)">
<path d="M344.783 42C318.452 42 297.029 64.4305 297.029 92C297.029 119.57 318.452 142 344.783 142C371.114 142 392.537 119.57 392.537 92C392.537 64.4305 371.114 42 344.783 42Z" fill="#303C42"/>
<path d="M344.783 46.1666C367.449 46.1666 386.142 64.2988 388.337 87.4359C385.098 88.1869 376.871 89.7559 364.478 89.8984C363.455 79.4094 355.067 71.1664 344.783 71.1664C334.5 71.1664 326.112 79.4092 325.089 89.8984C312.695 89.7559 304.468 88.1869 301.23 87.4359C303.425 64.299 322.117 46.1666 344.783 46.1666Z" fill="#E53935"/>
<path d="M344.783 108.667C353.574 108.667 360.701 101.205 360.701 92C360.701 82.7953 353.574 75.3334 344.783 75.3334C335.992 75.3334 328.865 82.7953 328.865 92C328.865 101.205 335.992 108.667 344.783 108.667Z" fill="#455A64"/>
<path d="M344.783 137.833C320.646 137.833 301.009 117.273 301.009 92C301.009 91.8836 301.025 91.7713 301.026 91.6551C304.814 92.4996 313.006 93.9104 325.083 94.0479C326.083 104.563 334.482 112.833 344.783 112.833C355.084 112.833 363.484 104.563 364.483 94.0479C376.561 93.9104 384.752 92.4996 388.541 91.6551C388.542 91.7713 388.558 91.8834 388.558 92C388.558 117.273 368.921 137.833 344.783 137.833Z" fill="white"/>
<path d="M344.783 104.5C351.377 104.5 356.722 98.9036 356.722 92C356.722 85.0964 351.377 79.5 344.783 79.5C338.19 79.5 332.845 85.0964 332.845 92C332.845 98.9036 338.19 104.5 344.783 104.5Z" fill="#303C42"/>
<path d="M344.783 100.333C349.179 100.333 352.742 96.6024 352.742 92C352.742 87.3976 349.179 83.6666 344.783 83.6666C340.387 83.6666 336.824 87.3976 336.824 92C336.824 96.6024 340.387 100.333 344.783 100.333Z" fill="#F2F2F2"/>
<path opacity="0.2" d="M338.399 94.5172C338.399 89.9213 341.969 86.1838 346.358 86.1838C348.637 86.1838 350.68 87.2041 352.132 88.8156C350.935 85.7969 348.095 83.6666 344.783 83.6666C340.394 83.6666 336.824 87.4039 336.824 92C336.824 94.2102 337.664 96.2086 339.009 97.7014C338.619 96.7194 338.399 95.6453 338.399 94.5172Z" fill="white"/>
<path d="M344.783 42C318.452 42 297.029 64.4305 297.029 92C297.029 119.57 318.452 142 344.783 142C371.114 142 392.537 119.57 392.537 92C392.537 64.4305 371.114 42 344.783 42Z" fill="url(#paint0_linear)"/>
<path opacity="0.1" d="M379.991 88.8744C383.917 88.3752 386.74 87.8066 388.337 87.4359C387.255 76.0307 382.152 65.8547 374.552 58.4541C378.37 65.2537 380.599 73.1424 380.599 81.5834C380.599 84.0703 380.357 86.4939 379.991 88.8744Z" fill="black"/>
<path opacity="0.1" d="M388.541 91.6551C386.574 92.0936 383.395 92.6818 379.127 93.1682C374.206 112.839 357.133 127.417 336.824 127.417C325.298 127.417 314.83 122.693 307.004 115.041C314.604 128.648 328.673 137.833 344.783 137.833C368.921 137.833 388.558 117.273 388.558 92C388.558 91.8836 388.542 91.7713 388.541 91.6551Z" fill="black"/>
</g>
<defs>
<linearGradient id="paint0_linear" x1="301.505" y1="70.8766" x2="389.441" y2="110.035" gradientUnits="userSpaceOnUse">
<stop stop-color="white" stop-opacity="0.2"/>
<stop offset="1" stop-color="white" stop-opacity="0"/>
</linearGradient>
<clipPath id="clip0">
<rect width="489" height="512" fill="white"/>
</clipPath>
<clipPath id="clip1">
<rect width="95.5078" height="100" fill="white" transform="translate(297.029 42)"/>
</clipPath>
</defs>
</svg>
